<mxfile host="app.diagrams.net" modified="2022-04-03T05:26:54.780Z" agent="5.0 (Windows NT 10.0; Win64; x64) AppleWebKit/537.36 (KHTML, like Gecko) Chrome/100.0.4896.60 Safari/537.36" etag="HZ981H-HxpxhnMG9JNHx" version="17.4.0" type="github">
  <diagram id="zHL9Ux5KVUl5C5yQYTjW" name="Page-1">
    <mxGraphModel dx="1278" dy="589" grid="1" gridSize="10" guides="1" tooltips="1" connect="1" arrows="1" fold="1" page="1" pageScale="1" pageWidth="850" pageHeight="1100" math="0" shadow="0">
      <root>
        <mxCell id="0" />
        <mxCell id="1" parent="0" />
        <mxCell id="7P6gkxn4acNZvpEy9sLz-1" value="" style="edgeStyle=orthogonalEdgeStyle;rounded=0;orthogonalLoop=1;jettySize=auto;html=1;fillColor=#dae8fc;strokeColor=#6c8ebf;" parent="1" source="7P6gkxn4acNZvpEy9sLz-3" target="7P6gkxn4acNZvpEy9sLz-7" edge="1">
          <mxGeometry relative="1" as="geometry" />
        </mxCell>
        <mxCell id="7P6gkxn4acNZvpEy9sLz-2" value="" style="edgeStyle=orthogonalEdgeStyle;rounded=0;orthogonalLoop=1;jettySize=auto;html=1;" parent="1" source="7P6gkxn4acNZvpEy9sLz-3" target="7P6gkxn4acNZvpEy9sLz-11" edge="1">
          <mxGeometry relative="1" as="geometry" />
        </mxCell>
        <mxCell id="7P6gkxn4acNZvpEy9sLz-3" value="Show making Initiation" style="rounded=0;whiteSpace=wrap;html=1;fillColor=#dae8fc;strokeColor=#6c8ebf;" parent="1" vertex="1">
          <mxGeometry x="40" y="200" width="120" height="60" as="geometry" />
        </mxCell>
        <mxCell id="7P6gkxn4acNZvpEy9sLz-4" value="" style="edgeStyle=orthogonalEdgeStyle;rounded=0;orthogonalLoop=1;jettySize=auto;html=1;" parent="1" source="7P6gkxn4acNZvpEy9sLz-7" target="7P6gkxn4acNZvpEy9sLz-10" edge="1">
          <mxGeometry relative="1" as="geometry" />
        </mxCell>
        <mxCell id="7P6gkxn4acNZvpEy9sLz-5" value="" style="edgeStyle=orthogonalEdgeStyle;rounded=0;orthogonalLoop=1;jettySize=auto;html=1;" parent="1" source="7P6gkxn4acNZvpEy9sLz-7" target="7P6gkxn4acNZvpEy9sLz-13" edge="1">
          <mxGeometry relative="1" as="geometry" />
        </mxCell>
        <mxCell id="7P6gkxn4acNZvpEy9sLz-6" value="" style="edgeStyle=orthogonalEdgeStyle;rounded=0;orthogonalLoop=1;jettySize=auto;html=1;fillColor=#dae8fc;strokeColor=#6c8ebf;" parent="1" source="7P6gkxn4acNZvpEy9sLz-7" target="7P6gkxn4acNZvpEy9sLz-10" edge="1">
          <mxGeometry relative="1" as="geometry" />
        </mxCell>
        <mxCell id="7P6gkxn4acNZvpEy9sLz-7" value="Requirement&lt;br&gt;Planning" style="rounded=0;whiteSpace=wrap;html=1;fillColor=#dae8fc;strokeColor=#6c8ebf;" parent="1" vertex="1">
          <mxGeometry x="200" y="200" width="120" height="60" as="geometry" />
        </mxCell>
        <mxCell id="7P6gkxn4acNZvpEy9sLz-8" value="" style="edgeStyle=orthogonalEdgeStyle;rounded=0;orthogonalLoop=1;jettySize=auto;html=1;" parent="1" source="7P6gkxn4acNZvpEy9sLz-10" target="7P6gkxn4acNZvpEy9sLz-18" edge="1">
          <mxGeometry relative="1" as="geometry" />
        </mxCell>
        <mxCell id="7P6gkxn4acNZvpEy9sLz-9" value="" style="edgeStyle=orthogonalEdgeStyle;rounded=0;orthogonalLoop=1;jettySize=auto;html=1;fillColor=#dae8fc;strokeColor=#6c8ebf;" parent="1" source="7P6gkxn4acNZvpEy9sLz-10" target="7P6gkxn4acNZvpEy9sLz-25" edge="1">
          <mxGeometry relative="1" as="geometry" />
        </mxCell>
        <mxCell id="7P6gkxn4acNZvpEy9sLz-10" value="Design" style="rounded=0;whiteSpace=wrap;html=1;fillColor=#dae8fc;strokeColor=#6c8ebf;" parent="1" vertex="1">
          <mxGeometry x="360" y="200" width="120" height="60" as="geometry" />
        </mxCell>
        <mxCell id="7P6gkxn4acNZvpEy9sLz-11" value="Estimating the budget by analyzing the expenditures per episode of the show" style="shape=document;whiteSpace=wrap;html=1;boundedLbl=1;" parent="1" vertex="1">
          <mxGeometry x="40" y="310" width="120" height="90" as="geometry" />
        </mxCell>
        <mxCell id="7P6gkxn4acNZvpEy9sLz-13" value="Functional Requirements:&lt;br&gt;Water, electricity, studio" style="shape=document;whiteSpace=wrap;html=1;boundedLbl=1;rounded=0;" parent="1" vertex="1">
          <mxGeometry x="190" y="315" width="140" height="80" as="geometry" />
        </mxCell>
        <mxCell id="7P6gkxn4acNZvpEy9sLz-15" value="Technical Requirements:&lt;br&gt;Actors, script, direction team, camera team, sound team, makeup team&amp;nbsp;" style="shape=document;whiteSpace=wrap;html=1;boundedLbl=1;rounded=0;" parent="1" vertex="1">
          <mxGeometry x="190" y="420" width="140" height="110" as="geometry" />
        </mxCell>
        <mxCell id="7P6gkxn4acNZvpEy9sLz-16" value="Contacting managers of the famous personalities and fixing appointments" style="shape=document;whiteSpace=wrap;html=1;boundedLbl=1;rounded=0;" parent="1" vertex="1">
          <mxGeometry x="190" y="555" width="140" height="80" as="geometry" />
        </mxCell>
        <mxCell id="7P6gkxn4acNZvpEy9sLz-18" value="Designing the studio of the show" style="shape=document;whiteSpace=wrap;html=1;boundedLbl=1;rounded=0;" parent="1" vertex="1">
          <mxGeometry x="360" y="310" width="120" height="80" as="geometry" />
        </mxCell>
        <mxCell id="7P6gkxn4acNZvpEy9sLz-20" value="Preparing questions asked to the famous personalities&amp;nbsp;" style="shape=document;whiteSpace=wrap;html=1;boundedLbl=1;rounded=0;" parent="1" vertex="1">
          <mxGeometry x="360" y="420" width="120" height="80" as="geometry" />
        </mxCell>
        <mxCell id="7P6gkxn4acNZvpEy9sLz-22" value="Recording the show plan" style="shape=document;whiteSpace=wrap;html=1;boundedLbl=1;rounded=0;" parent="1" vertex="1">
          <mxGeometry x="360" y="530" width="120" height="80" as="geometry" />
        </mxCell>
        <mxCell id="7P6gkxn4acNZvpEy9sLz-23" value="" style="edgeStyle=orthogonalEdgeStyle;rounded=0;orthogonalLoop=1;jettySize=auto;html=1;" parent="1" source="7P6gkxn4acNZvpEy9sLz-25" target="7P6gkxn4acNZvpEy9sLz-27" edge="1">
          <mxGeometry relative="1" as="geometry" />
        </mxCell>
        <mxCell id="7P6gkxn4acNZvpEy9sLz-24" value="" style="edgeStyle=orthogonalEdgeStyle;rounded=0;orthogonalLoop=1;jettySize=auto;html=1;fillColor=#dae8fc;strokeColor=#6c8ebf;" parent="1" source="7P6gkxn4acNZvpEy9sLz-25" target="7P6gkxn4acNZvpEy9sLz-33" edge="1">
          <mxGeometry relative="1" as="geometry" />
        </mxCell>
        <mxCell id="7P6gkxn4acNZvpEy9sLz-25" value="Film making" style="rounded=0;whiteSpace=wrap;html=1;fillColor=#dae8fc;strokeColor=#6c8ebf;" parent="1" vertex="1">
          <mxGeometry x="524.5" y="200" width="120" height="60" as="geometry" />
        </mxCell>
        <mxCell id="7P6gkxn4acNZvpEy9sLz-26" value="" style="edgeStyle=orthogonalEdgeStyle;rounded=0;orthogonalLoop=1;jettySize=auto;html=1;" parent="1" source="7P6gkxn4acNZvpEy9sLz-27" edge="1">
          <mxGeometry relative="1" as="geometry">
            <mxPoint x="585" y="414" as="targetPoint" />
          </mxGeometry>
        </mxCell>
        <mxCell id="7P6gkxn4acNZvpEy9sLz-27" value="Setting up the studio/place to record" style="shape=document;whiteSpace=wrap;html=1;boundedLbl=1;rounded=0;" parent="1" vertex="1">
          <mxGeometry x="525" y="310" width="120" height="80" as="geometry" />
        </mxCell>
        <mxCell id="7P6gkxn4acNZvpEy9sLz-30" value="Retakes in case of disturbances" style="shape=document;whiteSpace=wrap;html=1;boundedLbl=1;rounded=0;" parent="1" vertex="1">
          <mxGeometry x="524.5" y="417" width="120" height="80" as="geometry" />
        </mxCell>
        <mxCell id="7P6gkxn4acNZvpEy9sLz-31" value="" style="edgeStyle=orthogonalEdgeStyle;rounded=0;orthogonalLoop=1;jettySize=auto;html=1;" parent="1" source="7P6gkxn4acNZvpEy9sLz-33" target="7P6gkxn4acNZvpEy9sLz-34" edge="1">
          <mxGeometry relative="1" as="geometry" />
        </mxCell>
        <mxCell id="7P6gkxn4acNZvpEy9sLz-32" value="" style="edgeStyle=orthogonalEdgeStyle;rounded=0;orthogonalLoop=1;jettySize=auto;html=1;fillColor=#dae8fc;strokeColor=#6c8ebf;" parent="1" source="7P6gkxn4acNZvpEy9sLz-33" target="7P6gkxn4acNZvpEy9sLz-38" edge="1">
          <mxGeometry relative="1" as="geometry" />
        </mxCell>
        <mxCell id="7P6gkxn4acNZvpEy9sLz-33" value="Testing&amp;nbsp;" style="rounded=0;whiteSpace=wrap;html=1;fillColor=#dae8fc;strokeColor=#6c8ebf;" parent="1" vertex="1">
          <mxGeometry x="680" y="200" width="120" height="60" as="geometry" />
        </mxCell>
        <mxCell id="7P6gkxn4acNZvpEy9sLz-34" value="Testing the quality and content of the show and getting it approved" style="shape=document;whiteSpace=wrap;html=1;boundedLbl=1;rounded=0;" parent="1" vertex="1">
          <mxGeometry x="680" y="310" width="120" height="90" as="geometry" />
        </mxCell>
        <mxCell id="7P6gkxn4acNZvpEy9sLz-35" value="Show editing plan" style="shape=document;whiteSpace=wrap;html=1;boundedLbl=1;rounded=0;" parent="1" vertex="1">
          <mxGeometry x="360" y="640" width="120" height="80" as="geometry" />
        </mxCell>
        <mxCell id="7P6gkxn4acNZvpEy9sLz-36" value="" style="edgeStyle=orthogonalEdgeStyle;rounded=0;orthogonalLoop=1;jettySize=auto;html=1;" parent="1" source="7P6gkxn4acNZvpEy9sLz-38" edge="1">
          <mxGeometry relative="1" as="geometry">
            <mxPoint x="900" y="310" as="targetPoint" />
          </mxGeometry>
        </mxCell>
        <mxCell id="7P6gkxn4acNZvpEy9sLz-37" value="" style="edgeStyle=orthogonalEdgeStyle;rounded=0;orthogonalLoop=1;jettySize=auto;html=1;fillColor=#dae8fc;strokeColor=#6c8ebf;" parent="1" source="7P6gkxn4acNZvpEy9sLz-38" target="7P6gkxn4acNZvpEy9sLz-43" edge="1">
          <mxGeometry relative="1" as="geometry" />
        </mxCell>
        <mxCell id="7P6gkxn4acNZvpEy9sLz-38" value="Movie release" style="whiteSpace=wrap;html=1;rounded=0;fillColor=#dae8fc;strokeColor=#6c8ebf;" parent="1" vertex="1">
          <mxGeometry x="840" y="200" width="120" height="60" as="geometry" />
        </mxCell>
        <mxCell id="7P6gkxn4acNZvpEy9sLz-41" value="Releasing the show on line/ on air" style="shape=document;whiteSpace=wrap;html=1;boundedLbl=1;rounded=0;" parent="1" vertex="1">
          <mxGeometry x="840" y="314" width="120" height="86" as="geometry" />
        </mxCell>
        <mxCell id="7P6gkxn4acNZvpEy9sLz-42" value="" style="edgeStyle=orthogonalEdgeStyle;rounded=0;orthogonalLoop=1;jettySize=auto;html=1;" parent="1" source="7P6gkxn4acNZvpEy9sLz-43" target="7P6gkxn4acNZvpEy9sLz-45" edge="1">
          <mxGeometry relative="1" as="geometry" />
        </mxCell>
        <mxCell id="7P6gkxn4acNZvpEy9sLz-43" value="Enhancement" style="whiteSpace=wrap;html=1;rounded=0;fillColor=#dae8fc;strokeColor=#6c8ebf;" parent="1" vertex="1">
          <mxGeometry x="1000" y="200" width="120" height="60" as="geometry" />
        </mxCell>
        <mxCell id="7P6gkxn4acNZvpEy9sLz-44" value="" style="edgeStyle=orthogonalEdgeStyle;rounded=0;orthogonalLoop=1;jettySize=auto;html=1;" parent="1" source="7P6gkxn4acNZvpEy9sLz-45" target="7P6gkxn4acNZvpEy9sLz-46" edge="1">
          <mxGeometry relative="1" as="geometry" />
        </mxCell>
        <mxCell id="7P6gkxn4acNZvpEy9sLz-45" value="Publicity of the show" style="shape=document;whiteSpace=wrap;html=1;boundedLbl=1;rounded=0;" parent="1" vertex="1">
          <mxGeometry x="1000" y="315" width="120" height="80" as="geometry" />
        </mxCell>
        <mxCell id="7P6gkxn4acNZvpEy9sLz-46" value="Feedback" style="shape=document;whiteSpace=wrap;html=1;boundedLbl=1;rounded=0;" parent="1" vertex="1">
          <mxGeometry x="1000" y="414" width="120" height="80" as="geometry" />
        </mxCell>
        <mxCell id="7P6gkxn4acNZvpEy9sLz-47" value="Phase 1&lt;br&gt;Formation" style="text;html=1;strokeColor=none;fillColor=none;align=center;verticalAlign=middle;whiteSpace=wrap;rounded=0;" parent="1" vertex="1">
          <mxGeometry x="70" y="130" width="60" height="30" as="geometry" />
        </mxCell>
        <mxCell id="7P6gkxn4acNZvpEy9sLz-48" value="Phase 2&lt;br&gt;Requirement/ Planning" style="text;html=1;strokeColor=none;fillColor=none;align=center;verticalAlign=middle;whiteSpace=wrap;rounded=0;" parent="1" vertex="1">
          <mxGeometry x="230" y="130" width="60" height="30" as="geometry" />
        </mxCell>
        <mxCell id="7P6gkxn4acNZvpEy9sLz-49" value="Phase 3&lt;br&gt;Design" style="text;html=1;strokeColor=none;fillColor=none;align=center;verticalAlign=middle;whiteSpace=wrap;rounded=0;" parent="1" vertex="1">
          <mxGeometry x="390" y="130" width="60" height="30" as="geometry" />
        </mxCell>
        <mxCell id="7P6gkxn4acNZvpEy9sLz-50" value="Phase 4&lt;br&gt;Construct" style="text;html=1;strokeColor=none;fillColor=none;align=center;verticalAlign=middle;whiteSpace=wrap;rounded=0;" parent="1" vertex="1">
          <mxGeometry x="555" y="130" width="60" height="30" as="geometry" />
        </mxCell>
        <mxCell id="7P6gkxn4acNZvpEy9sLz-51" value="Phase 5&lt;br&gt;Test" style="text;html=1;strokeColor=none;fillColor=none;align=center;verticalAlign=middle;whiteSpace=wrap;rounded=0;" parent="1" vertex="1">
          <mxGeometry x="710" y="130" width="60" height="30" as="geometry" />
        </mxCell>
        <mxCell id="7P6gkxn4acNZvpEy9sLz-52" value="Phase 6&lt;br&gt;Product release" style="text;html=1;strokeColor=none;fillColor=none;align=center;verticalAlign=middle;whiteSpace=wrap;rounded=0;" parent="1" vertex="1">
          <mxGeometry x="870" y="130" width="60" height="30" as="geometry" />
        </mxCell>
        <mxCell id="7P6gkxn4acNZvpEy9sLz-53" value="Phase 7&lt;br&gt;Post Implementation" style="text;html=1;strokeColor=none;fillColor=none;align=center;verticalAlign=middle;whiteSpace=wrap;rounded=0;" parent="1" vertex="1">
          <mxGeometry x="1030" y="130" width="60" height="30" as="geometry" />
        </mxCell>
        <mxCell id="7P6gkxn4acNZvpEy9sLz-54" value="" style="endArrow=none;html=1;rounded=0;" parent="1" edge="1">
          <mxGeometry width="50" height="50" relative="1" as="geometry">
            <mxPoint x="60" y="110" as="sourcePoint" />
            <mxPoint x="1110" y="110" as="targetPoint" />
          </mxGeometry>
        </mxCell>
        <mxCell id="7P6gkxn4acNZvpEy9sLz-55" value="" style="endArrow=none;html=1;rounded=0;" parent="1" edge="1">
          <mxGeometry width="50" height="50" relative="1" as="geometry">
            <mxPoint x="60" y="180" as="sourcePoint" />
            <mxPoint x="1110" y="180" as="targetPoint" />
          </mxGeometry>
        </mxCell>
      </root>
    </mxGraphModel>
  </diagram>
</mxfile>
